<svg width="85" height="25" viewBox="0 0 85 25" fill="none" xmlns="http://www.w3.org/2000/svg">
<path d="M0.829287 24.1997H14.6053V21.0477H4.17329V1.15971H0.829287V24.1997ZM26.3128 24.6797C28.6168 24.6797 30.5795 24.173 32.2008 23.1597C33.8221 22.1464 35.0595 20.7437 35.9128 18.9517C36.7661 17.149 37.1928 15.0584 37.1928 12.6797C37.1928 10.301 36.7661 8.21571 35.9128 6.42371C35.0595 4.62104 33.8221 3.21304 32.2008 2.19971C30.5795 1.18637 28.6168 0.679707 26.3128 0.679707C24.0088 0.679707 22.0461 1.18637 20.4248 2.19971C18.8035 3.21304 17.5608 4.62104 16.6968 6.42371C15.8435 8.21571 15.4168 10.301 15.4168 12.6797C15.4168 15.0584 15.8435 17.149 16.6968 18.9517C17.5608 20.7437 18.8035 22.1464 20.4248 23.1597C22.0461 24.173 24.0088 24.6797 26.3128 24.6797ZM26.3128 21.4957C23.8701 21.4744 22.0301 20.6584 20.7928 19.0477C19.5661 17.437 18.9581 15.3144 18.9688 12.6797C18.9795 10.9197 19.2515 9.37837 19.7848 8.05571C20.3288 6.72237 21.1448 5.68771 22.2328 4.95171C23.3208 4.20504 24.6808 3.84237 26.3128 3.86371C28.7661 3.87437 30.6008 4.68504 31.8168 6.29571C33.0328 7.90637 33.6408 10.0344 33.6408 12.6797C33.6408 14.4397 33.3688 15.9864 32.8248 17.3197C32.2915 18.6424 31.4808 19.6717 30.3928 20.4077C29.3048 21.1437 27.9448 21.5064 26.3128 21.4957ZM49.8083 24.6797C52.0483 24.6797 53.947 24.205 55.5043 23.2557C57.0723 22.2957 58.267 20.9784 59.0883 19.3037C59.9096 17.629 60.3203 15.725 60.3203 13.5917C60.3203 13.5064 60.315 13.309 60.3043 12.9997C60.2936 12.6904 60.2776 12.4344 60.2563 12.2317H52.2243V14.9197H56.7043C56.4696 17.053 55.787 18.6904 54.6563 19.8317C53.5256 20.9624 51.9736 21.517 50.0003 21.4957C47.5576 21.4744 45.7176 20.6584 44.4803 19.0477C43.2536 17.437 42.6456 15.3144 42.6563 12.6797C42.667 10.9197 42.939 9.37837 43.4723 8.05571C44.0163 6.72237 44.8323 5.68771 45.9203 4.95171C47.0083 4.21571 48.3683 3.85304 50.0003 3.86371C51.5896 3.87437 52.907 4.29037 53.9523 5.11171C54.9976 5.93304 55.7496 7.03171 56.2083 8.40771L59.6003 7.79971C59.0136 5.58104 57.9096 3.84237 56.2883 2.58371C54.6776 1.32504 52.5176 0.695705 49.8083 0.695705C47.707 0.695705 45.851 1.18104 44.2403 2.15171C42.6296 3.11171 41.371 4.48771 40.4643 6.27971C39.5576 8.06104 39.1043 10.1944 39.1043 12.6797C39.1043 15.197 39.5683 17.3517 40.4963 19.1437C41.4243 20.9357 42.6936 22.3064 44.3043 23.2557C45.915 24.205 47.7496 24.6797 49.8083 24.6797ZM73.1253 24.6797C75.4293 24.6797 77.392 24.173 79.0133 23.1597C80.6346 22.1464 81.872 20.7437 82.7253 18.9517C83.5786 17.149 84.0053 15.0584 84.0053 12.6797C84.0053 10.301 83.5786 8.21571 82.7253 6.42371C81.872 4.62104 80.6346 3.21304 79.0133 2.19971C77.392 1.18637 75.4293 0.679707 73.1253 0.679707C70.8213 0.679707 68.8586 1.18637 67.2373 2.19971C65.616 3.21304 64.3733 4.62104 63.5093 6.42371C62.656 8.21571 62.2293 10.301 62.2293 12.6797C62.2293 15.0584 62.656 17.149 63.5093 18.9517C64.3733 20.7437 65.616 22.1464 67.2373 23.1597C68.8586 24.173 70.8213 24.6797 73.1253 24.6797ZM73.1253 21.4957C70.6826 21.4744 68.8426 20.6584 67.6053 19.0477C66.3786 17.437 65.7706 15.3144 65.7813 12.6797C65.792 10.9197 66.064 9.37837 66.5973 8.05571C67.1413 6.72237 67.9573 5.68771 69.0453 4.95171C70.1333 4.20504 71.4933 3.84237 73.1253 3.86371C75.5786 3.87437 77.4133 4.68504 78.6293 6.29571C79.8453 7.90637 80.4533 10.0344 80.4533 12.6797C80.4533 14.4397 80.1813 15.9864 79.6373 17.3197C79.104 18.6424 78.2933 19.6717 77.2053 20.4077C76.1173 21.1437 74.7573 21.5064 73.1253 21.4957Z" fill="black"/>
</svg>
