<svg width="24" height="24" viewBox="0 0 24 24" fill="none" xmlns="http://www.w3.org/2000/svg">
<g clip-path="url(#clip0)">
<path d="M20.2373 4C19.9375 4.00292 19.6399 4.04909 19.3547 4.13695C19.3435 4.14023 19.3332 4.14391 19.3218 4.14801L2.64836 10.3022C2.61266 10.3154 2.57859 10.3323 2.54676 10.3526C2.39676 10.4531 2.27088 10.5828 2.17749 10.7332C2.08409 10.8836 2.0253 11.0512 2.00502 11.2249C1.96464 11.6511 2.16806 12.0732 2.60905 12.4795C3.54217 13.341 5.68292 13.7113 6.52883 13.8278L8.25651 18.297C8.26319 18.3143 8.27086 18.3313 8.2795 18.3478C8.38893 18.5567 8.55518 18.7338 8.7609 18.8607C8.96662 18.9875 9.20429 19.0595 9.44911 19.069C9.86433 19.069 10.2836 18.87 10.695 18.4778L12.2201 17.0243L16.3212 19.7832L16.3328 19.7908C16.5576 19.9259 16.8175 19.9984 17.0833 20C17.4006 20 17.9943 19.8829 18.4059 19.098C18.9429 18.0745 21.6763 6.89953 21.9863 5.62807C21.9954 5.59096 22 5.55297 22 5.51486C21.9998 4.63706 21.2587 4 20.2373 4ZM17.4663 18.6499C17.3828 18.809 17.2485 18.9979 17.0827 18.9979C17.0227 18.996 16.9639 18.9811 16.9108 18.9543L12.4643 15.9627C12.3632 15.8947 12.2401 15.8629 12.1168 15.873C11.9934 15.883 11.8778 15.9343 11.7903 16.0178L9.95283 17.7689C9.66242 18.0456 9.49379 18.0671 9.44911 18.0671C9.34493 18.0671 9.25579 17.9527 9.22593 17.9087L7.40481 13.1973C7.37113 13.1103 7.31277 13.0339 7.23623 12.9767C7.1597 12.9195 7.06799 12.8837 6.97133 12.8732C6.20684 12.7903 4.06393 12.4284 3.33939 11.7598C3.06165 11.5041 3.04812 11.3573 3.05069 11.3184C3.05674 11.2751 3.07775 11.235 3.11041 11.2044L19.6844 5.08743C19.8634 5.03278 20.05 5.0036 20.2379 5.00083C20.3991 5.00083 20.9122 5.03522 20.9485 5.46594C19.7413 10.4115 17.83 17.9584 17.4667 18.6499H17.4663Z" fill="#7C8087" stroke="#7C8087" stroke-width="0.5"/>
<path d="M9 12.5L10 15L18 8L9 12.5Z" stroke="#7C8087" stroke-width="1.5" stroke-linecap="round" stroke-linejoin="round"/>
</g>
<defs>
<clipPath id="clip0">
<rect width="24" height="24" fill="white"/>
</clipPath>
</defs>
</svg>
