<svg width="18" height="18" viewBox="0 0 18 18" fill="none" xmlns="http://www.w3.org/2000/svg">
<path d="M15.3401 2.61392C13.6476 0.929306 11.3959 0.000961305 8.99959 0C6.60859 0 4.3534 0.927521 2.6497 2.61172C0.942984 4.29881 0.00219938 6.54085 0 8.91664V8.91939V8.92104C0.000274922 10.359 0.378431 11.8096 1.09625 13.1337L0.0246056 18L4.95163 16.8804C6.1995 17.5086 7.59185 17.8399 8.99615 17.8404H8.99973C11.3903 17.8404 13.6455 16.9128 15.3495 15.2284C17.0577 13.54 17.9989 11.3008 18 8.92351C18.0007 6.56296 17.0562 4.32216 15.3401 2.61392ZM8.99959 16.4355H8.99643C7.73549 16.435 6.48611 16.1187 5.38353 15.5207L5.15054 15.3943L1.87428 16.1388L2.58592 12.9077L2.44873 12.6714C1.76665 11.4962 1.40623 10.199 1.40623 8.91953C1.40884 4.77809 4.81486 1.40488 8.99931 1.40488C11.0208 1.4057 12.9203 2.18861 14.3477 3.60915C15.7966 5.05165 16.5943 6.93883 16.5936 8.9231C16.592 13.0655 13.1853 16.4355 8.99959 16.4355Z" fill="white"/>
</svg>
