<svg width="8" height="8" viewBox="0 0 8 8" fill="none" xmlns="http://www.w3.org/2000/svg">
<path d="M1.59096 0H1.21376C1.08246 0 0.869279 0.0531765 0.688957 0.265456C0.508503 0.477877 0 0.9913 0 2.03549C0 3.07969 0.705386 4.08862 0.803696 4.23037C0.902137 4.37199 2.16531 6.58322 4.16594 7.4339C5.82867 8.14083 6.1671 8.00022 6.52787 7.96481C6.88878 7.92955 7.69248 7.45153 7.8565 6.95602C8.02053 6.46052 8.02053 6.03567 7.97137 5.94695C7.92209 5.85851 7.79079 5.80548 7.59404 5.69941C7.39715 5.5932 6.43246 5.0711 6.252 5.00015C6.07155 4.92949 5.94038 4.89408 5.80908 5.10665C5.67778 5.31878 5.29125 5.8096 5.17638 5.95122C5.06164 6.09297 4.94677 6.11074 4.74989 6.00453C4.553 5.89804 3.92556 5.66998 3.17364 4.94712C2.58839 4.3845 2.18227 3.66704 2.0674 3.45462C1.95266 3.24234 2.05517 3.12746 2.15388 3.02153C2.24233 2.92655 2.3618 2.7966 2.46024 2.67276C2.55855 2.54877 2.58655 2.46034 2.65226 2.31872C2.71784 2.17711 2.68499 2.05312 2.63583 1.94706C2.58655 1.84084 2.20882 0.791391 2.03375 0.371667H2.03388C1.88642 0.0181994 1.7312 0.00625606 1.59096 0Z" fill="white"/>
</svg>
